# xmcd
#
# Track frame offsets:
#	150
#	11962
#	22680
#	30198
#	38489
#	47132
#	60675
#	69509
#	81071
#	91814
#	102000
#	110506
#	120383
#	131467
#	142110
#	153768
#	164511
#	176062
#	185935
#	196884
#
# Disc length: 2758 seconds
#
# Revision: 0
# Processed by: cddbd v1.5.2PL0 Copyright (c) Steve Scherf et al.
# Submitted via: audiograbber 1.83.01
#
DISCID=fe0ac414
DTITLE=Rock n Roll Cowboys - CD7
DYEAR=2014
DGENRE=Country
TTITLE0=TENNESSEE ERNIE FORD - SIXTEEN TONS
TTITLE1=JOHNNY DUNCVAN and HIS BLUE GRASS BOYS - FOOTPRINTS IN THE SNOW
TTITLE2=MARVIN RAINWATER - I DIG YOU BABY
TTITLE3=JOHNNY CASH - THE WRECK OF THE OLD `97
TTITLE4=JOHNNY HORTON - ALL GROWN UP
TTITLE5=OSBORNE BROTHERS - RUBY ARE YOU MAD
TTITLE6=DON GIBSON - EVEN THO´
TTITLE7=JIM REEVES - ROLY POLY
TTITLE8=SONNY JAMES - I CAN`T STOP LOVING YOU
TTITLE9=HANK THOMPSON - I´M NOT MAD - JUST HURT
TTITLE10=BOB LUMAN - MAKE UP YOUR MIND BABY
TTITLE11=CARL SMITH - YOU ARE THE ONE
TTITLE12=GEORGE JONES - TALL TALL TREES
TTITLE13=SKEETS MCDONALD - HEARTBREAKIN´MAMA
TTITLE14=RUSTY DRAPER - GAMBLER´S GUITAR
TTITLE15=JOHNNY HORTON - THE ELECTRIFIED DONKEY
TTITLE16=HANK WILLIAMS - KAW-LIGA
TTITLE17=WEBB PIERCE - BYE BYE LOVE
TTITLE18=THE CARLISLES - NO HELP WANTED
TTITLE19=JOHNNY CASH - HEY PORTER
EXTD=
EXTT0=
EXTT1=
EXTT2=
EXTT3=
EXTT4=
EXTT5=
EXTT6=
EXTT7=
EXTT8=
EXTT9=
EXTT10=
EXTT11=
EXTT12=
EXTT13=
EXTT14=
EXTT15=
EXTT16=
EXTT17=
EXTT18=
EXTT19=
PLAYORDER=
